FFmpeg version SVN-r25716, Copyright (c) 2000-2010 the FFmpeg developers  built on Nov 10 2010 12:23:18 with gcc 4.1.2 20080704 (Red Hat 4.1.2-48)  configuration: --enable-libmp3lame --enable-shared --disable-mmx --arch=x86_64  libavutil     50.33. 0 / 50.33. 0  libavcore      0.12. 1 /  0.12. 1  libavcodec    52.94. 4 / 52.94. 4  libavformat   52.84. 0 / 52.84. 0  libavdevice   52. 2. 2 / 52. 2. 2  libavfilter    1.59. 0 /  1.59. 0  libswscale     0.12. 0 /  0.12. 0Input #0, avi, from '/RAID10/data/converted_video_files/47561.avi':  Duration: 00:00:06.96, start: 0.000000, bitrate: 31614 kb/s    Stream #0.0: Video: msvideo1, rgb555le, 1024x1024, 30 tbr, 30 tbn, 30 tbc[buffer @ 0x1d47d510] w:1024 h:1024 pixfmt:rgb555le[ffsink @ 0x1d49ade0] auto-inserting filter 'auto-inserted scaler 0' between the filter 'src' and the filter 'out'[scale @ 0x1d49b100] w:1024 h:1024 fmt:rgb555le -> w:1024 h:1024 fmt:yuv420p flags:0x4Output #0, flv, to '/RAID10/data/converted_video_files/47561.flv':  Metadata:    encoder         : Lavf52.84.0    Stream #0.0: Video: flv, yuv420p, 1024x1024, q=2-31, 600 kb/s, 1k tbn, 24 tbcStream mapping:  Stream #0.0 -> #0.0Press [q] to stop encodingframe=    7 fps=  0 q=8.8 size=     373kB time=0.29 bitrate=10458.7kbits/s dup=0 drop=1    frame=   16 fps= 14 q=31.0 size=     424kB time=0.67 bitrate=5212.1kbits/s dup=0 drop=4    frame=   23 fps= 14 q=31.0 size=     430kB time=0.96 bitrate=3674.0kbits/s dup=0 drop=5    frame=   30 fps= 14 q=31.0 size=     461kB time=1.25 bitrate=3024.0kbits/s dup=0 drop=7    frame=   40 fps= 15 q=31.0 size=     501kB time=1.67 bitrate=2460.2kbits/s dup=0 drop=10    frame=   48 fps= 15 q=31.0 size=     509kB time=2.00 bitrate=2085.3kbits/s dup=0 drop=12    frame=   59 fps= 16 q=31.0 size=     544kB time=2.46 bitrate=1813.8kbits/s dup=0 drop=14    frame=   69 fps= 16 q=31.0 size=     578kB time=2.88 bitrate=1647.0kbits/s dup=0 drop=17    frame=   80 fps= 16 q=31.0 size=     617kB time=3.33 bitrate=1516.4kbits/s dup=0 drop=19    frame=   83 fps= 16 q=31.0 size=     619kB time=3.46 bitrate=1467.5kbits/s dup=0 drop=21    frame=   92 fps= 16 q=31.0 size=     651kB time=3.83 bitrate=1392.2kbits/s dup=0 drop=22    frame=  101 fps= 16 q=31.0 size=     684kB time=4.21 bitrate=1331.3kbits/s dup=0 drop=25    frame=  111 fps= 16 q=31.0 size=     717kB time=4.62 bitrate=1270.5kbits/s dup=0 drop=28    frame=  120 fps= 16 q=31.0 size=     723kB time=5.00 bitrate=1184.9kbits/s dup=0 drop=30    frame=  130 fps= 17 q=31.0 size=     756kB time=5.42 bitrate=1143.2kbits/s dup=0 drop=32    frame=  138 fps= 17 q=31.0 size=     788kB time=5.75 bitrate=1122.3kbits/s dup=0 drop=34    frame=  148 fps= 17 q=31.0 size=     821kB time=6.17 bitrate=1090.3kbits/s dup=0 drop=37    frame=  159 fps= 17 q=31.0 size=     854kB time=6.62 bitrate=1056.5kbits/s dup=0 drop=39    frame=  167 fps= 17 q=31.0 Lsize=     861kB time=6.96 bitrate=1013.5kbits/s dup=0 drop=42    video:858kB audio:0kB global headers:0kB muxing overhead 0.328032%